<svg viewBox="0 0 305.16 62.64" ref="logo">
    <path class="prefix__cls-1" d="M15.42 8.16a7.92 7.92 0 017.74-5 7.73 7.73 0 017.38 5L46.2 51.72H33l-2.34-7.44H15.24L13 51.72H0zm2.94 26h9.18L23 19.2z"/>
    <path class="prefix__cls-1" d="M61.56 50.22c0 8-4.68 12.42-12.3 12.42a7.17 7.17 0 01-4.14-1A4.77 4.77 0 0143 56.46a4.18 4.18 0 013.78-3.6 5.91 5.91 0 001-.12c.78-.18 1.68-.78 1.68-2.52V20.64c0-4.14 2.82-6 6.06-6s6.06 1.86 6.06 6zM55.5 1c3.36 0 6.24 1.56 6.24 5.52s-2.88 5.52-6.24 5.52-6.24-1.56-6.24-5.52S52.14 1 55.5 1zM67.32 30.72c0-12.9 9.24-16.62 17.4-16.62 8 0 17.4 3.72 17.4 16.62v5.52c0 12.9-9.42 16.62-17.4 16.62s-17.4-3.72-17.4-16.62zm22.74-.54c0-4.26-2.76-5.94-5.34-5.94s-5.34 1.68-5.34 5.94v6.6c0 4.26 2.76 5.94 5.34 5.94s5.34-1.68 5.34-5.94zM107.46 36.3V20.22c0-4.14 2.82-6 6.18-6s6.18 1.86 6.18 6V37c0 4.08 2.7 5.46 4.74 5.46s4.68-1.32 4.8-5.16V20.16c0-4.08 2.76-5.94 6.06-5.94s6.12 1.86 6.12 5.94v31.56H132l-.66-3.9a12.33 12.33 0 01-10.2 4.92c-7.62 0-13.68-3.74-13.68-16.44zM176.16 32.82V8.88a5.47 5.47 0 1110.92 0v37.8c0 3.66-3.18 5.52-5.88 5.76-2.88.24-6.36-.9-7.86-3.48L158.7 23v28.72h-10.92V9.3c0-3.72 3.24-5.7 6-6s6.24.9 7.74 3.48zM193.38 9.18c0-4.14 2.88-6 6.24-6s6.24 1.86 6.24 6v42.54h-12.48zM223.8 33.66c0 5.64 4 8.46 8.34 8.46A15.27 15.27 0 00238.5 41a12.13 12.13 0 013.12-1.26 4.67 4.67 0 015.16 2.26c1.5 2.46.54 5.16-1.56 6.84-3.3 2.7-8.46 3.9-13.08 3.9-10.38 0-20.7-5.28-20.7-18.54V21.72c0-13.26 10.32-18.54 20.7-18.54 5.34 0 9.48 1.26 11.82 2.94s3.66 4.62 2.22 7.14a5.19 5.19 0 01-5.46 2.58 14.63 14.63 0 01-3.3-1.26 13.79 13.79 0 00-5.28-.78c-4.32 0-8.34 2.82-8.34 8.46zM264.66 22.08H281c3.48 0 4.86 2.88 4.86 5.28s-1.32 5.1-4.86 5.1h-16.34v7c0 1.44.36 1.74 1.74 1.74h15.78c3.54 0 4.86 2.7 4.86 5.16s-1.38 5.34-4.86 5.34h-20.46c-7.2 0-9.36-2.58-9.36-9.48V12.9c0-6.9 2.16-9.48 9.36-9.48h19.86c3.48 0 4.86 2.88 4.86 5.34s-1.32 5.16-4.86 5.16H266.4c-1.38 0-1.74.3-1.74 1.74zM298.74 40.5c4 0 6.42 2.4 6.42 6.06s-2.41 6.06-6.42 6.06-6.42-2.34-6.42-6.06 2.4-6.06 6.42-6.06zm-6.12-2.82V5.94c0-3.9 2.94-5.94 6.12-5.94a5.84 5.84 0 016.12 5.94v31.74z"/>
</svg>